<svg aria-hidden="true" style="position: absolute; width: 0; height: 0; overflow: hidden;" version="1.1" xmlns="http://www.w3.org/2000/svg" xmlns:xlink="http://www.w3.org/1999/xlink">
<defs>
<symbol id="icon-xbox" viewBox="0 0 106 32">
<path fill="#8dd83d" style="fill: var(--color1, #8dd83d)" d="M68.717 15.466c3.161-1.974 2.427-6.165 0.365-7.8-1.79-1.419-3.234-1.412-8.922-1.383-0.914 0.005-1.939 0.010-3.091 0.010-0.355 0-0.643 0.286-0.643 0.637v7.632c-0.434 0-0.793-0.003-1.091-0.005-1.359-0.009-1.471-0.010-1.674 0.269-0.111 0.152-0.21 0.285-0.299 0.403l-0 0c-0.469 0.626-0.63 0.841-0.442 1.206 0.19 0.367 0.328 0.366 2.078 0.354 0.393-0.003 0.866-0.006 1.44-0.006v8.339c0 0.352 0.288 0.637 0.642 0.637 6.955 0.006 8.002 0.002 9.283-0.187 3.047-0.449 4.953-2.399 5.098-5.217 0.152-2.922-1.592-4.106-2.53-4.743-0.077-0.053-0.149-0.101-0.214-0.147zM61.476 14.564v0c-0.729-0.003-1.583-0.006-2.59-0.007v-5.972c0.21-0.034 4.468-0.027 5.903 0.006 0.569 0.013 1.197 0.129 1.818 0.334 1.134 0.376 1.757 1.21 1.799 2.414 0.046 1.319-0.485 2.239-1.578 2.733-1.126 0.509-1.5 0.507-5.353 0.492zM58.883 16.776c0.721 0 1.424-0.011 2.102-0.021 4.497-0.068 7.87-0.119 8.045 3.058 0.081 1.469-0.586 2.598-1.878 3.177-1.207 0.54-2.232 0.535-5.361 0.519-0.4-0.002-0.835-0.004-1.309-0.005-1.316-0.003-1.421 0.002-1.524-0.009-0.022-0.002-0.043-0.005-0.075-0.009v-6.71z"></path>
<path fill="#8dd83d" style="fill: var(--color1, #8dd83d)" d="M73.428 10.683c3.72-7.093 14.937-6.374 17.098 2.078 1.596 6.238-1.313 13-8.45 13.401-8.712 0.493-11.962-9.162-8.649-15.478zM76.229 10.807c-3.138 4.179-1.738 13.066 5.363 13.066 5.195 0 7.734-5.072 6.629-10.124-1.405-6.418-8.79-7.204-11.992-2.942z"></path>
<path fill="#8dd83d" style="fill: var(--color1, #8dd83d)" d="M99.021 15.573c6.609-8.89 6.431-8.429 6.186-8.911-0.227-0.446-0.602-0.35-1.862-0.35-0.448 0-0.083-0.325-5.785 7.345-5.683-7.637-5.329-7.33-5.779-7.33-1.266 0-1.637-0.095-1.864 0.35-0.109 0.215-0.088 0.472 0.056 0.666l6.123 8.231c-7.322 9.891-7.077 9.337-6.832 9.818 0.227 0.445 0.599 0.349 1.867 0.349 0.204 0 0.396-0.096 0.517-0.259l5.91-7.946 5.904 7.932c0.247 0.332 0.491 0.259 1.808 0.259 0.242 0 0.464-0.135 0.573-0.349 0.248-0.485 0.461 0.033-6.824-9.805z"></path>
<path fill="#8dd83d" style="fill: var(--color1, #8dd83d)" d="M48.209 15.573c6.587-8.855 6.435-8.426 6.189-8.91-0.109-0.215-0.331-0.35-0.574-0.35-1.335 0-1.563-0.067-1.806 0.259l-5.273 7.086c-5.677-7.641-5.326-7.336-5.775-7.336-1.274 0-1.632-0.091-1.856 0.35-0.109 0.215-0.088 0.472 0.056 0.666l6.121 8.235c-7.326 9.888-7.081 9.333-6.835 9.815 0.227 0.444 0.596 0.349 1.87 0.349 0.448 0 0.013 0.417 6.424-8.201 6.417 8.622 5.981 8.201 6.428 8.201 0.032 0 1.31 0 1.298 0 0.561 0 0.847-0.661 0.476-1.066l-6.743-9.099z"></path>
<path fill="#8dd83d" style="fill: var(--color1, #8dd83d)" d="M9.694 2.493c1.685 0.204 3.762 0.953 6.174 2.225 0.152 0.080 0.339 0.083 0.496-0.001 2.377-1.272 4.441-2.025 6.134-2.237 0.52-0.065 0.632-0.769 0.155-0.988-4.085-1.881-8.774-2.004-13.118 0.014-0.212 0.098-0.332 0.324-0.296 0.553s0.222 0.406 0.455 0.434z"></path>
<path fill="#8dd83d" style="fill: var(--color1, #8dd83d)" d="M27.081 26.267c-0.028-0.201-0.793-5.003-10.683-13.109-0.192-0.157-0.468-0.159-0.662-0.006-8.711 6.896-11.814 13.491-10.391 14.707 3.364 2.877 6.582 4.104 10.762 4.104 4.542 0 7.421-1.511 10.595-3.949 0.612-0.471 0.39-1.687 0.383-1.721l-0.004-0.026z"></path>
<path fill="#8dd83d" style="fill: var(--color1, #8dd83d)" d="M27.166 4.633c-1.772-0.282-5.117 2.7-6.413 3.948-0.194 0.187-0.213 0.489-0.044 0.698 6.375 7.903 7.987 12.415 8.218 14.809 0.022 0.223 0.184 0.407 0.404 0.458 0.222 0.051 0.449-0.046 0.566-0.235 1.534-2.48 2.344-5.349 2.344-8.298 0-6.507-4.489-11.287-5.074-11.379z"></path>
<path fill="#8dd83d" style="fill: var(--color1, #8dd83d)" d="M11.479 8.582c-3.714-3.578-5.57-3.964-6.195-3.964-0.078 0-0.151 0.005-0.217 0.016-0.108 0.017-0.208 0.068-0.286 0.144-5.187 5.097-6.384 13.165-2.444 19.534 0.097 0.156 0.268 0.248 0.447 0.248 0.271 0 0.497-0.204 0.523-0.471 0.23-2.394 1.843-6.906 8.217-14.809 0.169-0.21 0.15-0.512-0.044-0.698z"></path>
<path fill="#79c422" style="fill: var(--color2, #79c422)" d="M6.268 23.644c-0.872 1.564-1.072 2.471-1.078 2.5-0.079 0.471-0.123 1.398 0.255 1.715 3.427 2.877 6.706 4.104 10.963 4.104 0.78 0 1.508-0.047 2.201-0.129-5.334-0.65-9.872-3.79-12.342-8.19z"></path>
<path fill="#79c422" style="fill: var(--color2, #79c422)" d="M4.269 16.004c0-3.922 1.456-7.511 3.868-10.29-1.493-0.949-2.362-1.097-2.755-1.097-0.079 0-0.154 0.005-0.221 0.016-0.11 0.017-0.212 0.068-0.292 0.144-5.284 5.097-6.504 13.165-2.49 19.534 0.099 0.156 0.273 0.248 0.456 0.248 0.276 0 0.506-0.204 0.532-0.471 0.101-1.028 0.463-2.448 1.355-4.358-0.294-1.196-0.454-2.443-0.454-3.727z"></path>
<path fill="#79c422" style="fill: var(--color2, #79c422)" d="M11.451 2.804c2.067-1.37 4.473-2.288 7.070-2.618-3.274-0.427-6.135 0.101-8.807 1.319-0.216 0.098-0.339 0.324-0.301 0.553 0.089 0.546 0.516 0.342 2.038 0.746z"></path>
</symbol>
<symbol id="icon-xbox-white" viewBox="0 0 32 32">
<path fill="#fff" style="fill: var(--color3, #fff)" d="M7.016 2.715c-0.009 0.007-0.017 0.015-0.025 0.022-0.006 0.006-0.012 0.011-0.018 0.017 0.089-0.096 0.218-0.199 0.302-0.255 2.466-1.628 5.315-2.498 8.476-2.498 2.957 0 5.726 0.829 8.090 2.272 0.171 0.103 0.639 0.429 0.88 0.725v0.001c-2.281-2.554-8.985 2.926-8.985 2.926-2.319-1.816-4.452-3.053-6.039-3.493-1.327-0.369-2.245-0.061-2.681 0.284zM27.209 5.026l-0-0c-0.040-0.042-0.080-0.084-0.118-0.128-0.577-0.643-1.285-0.798-1.925-0.756-0.581 0.185-3.269 1.169-6.581 4.345 0 0 3.728 3.682 6.011 7.447 2.28 3.763 3.643 6.72 2.807 10.823-0.024-0.137-0.4-2.206-2.45-5.133-0.498-0.709-2.319-2.921-3.339-4.083-1.011-1.153-2.516-2.804-4.503-4.811-0.435-0.439-0.894-0.897-1.376-1.37 0 0-0.726 0.737-1.671 1.707v-0.001c-1.21 1.241-2.778 2.86-3.648 3.805-1.55 1.68-5.99 6.957-6.24 9.915 0 0-0.988-2.347 1.18-7.759 1.417-3.538 5.697-8.851 7.484-10.582 0 0-1.633-1.826-3.683-3.087l-0.012-0.004c0 0-0.023-0.019-0.060-0.042-0.986-0.597-2.062-1.057-3.098-1.118-1.058 0.076-1.728 0.862-1.728 0.862-2.643 2.863-4.261 6.71-4.261 10.944 0 8.836 7.052 16 15.752 16 4.617 0 8.771-2.022 11.653-5.237 0-0-0-0.001-0-0.002s-0-0.001-0-0.002c2.544-2.841 4.096-6.616 4.096-10.761 0-4.196-1.59-8.015-4.194-10.869-0.031-0.035-0.064-0.070-0.097-0.104zM27.404 26.76c-0.001 0.001-0.001 0.001-0.002 0.002 0-0.002 0.001-0.004 0.001-0.006 0 0.002 0 0.003 0.001 0.004z"></path>
</symbol>
<symbol id="icon-user" viewBox="0 0 32 32">
<path fill="#8dd83d" style="fill: var(--color1, #8dd83d)" d="M26.667 10.667c0 3.867-2 7.2-5.067 9.067 5.333 1.867 9.333 6.533 10.4 12.267h-2.667c-1.333-6.133-6.8-10.667-13.333-10.667s-12 4.533-13.333 10.667h-2.667c1.067-5.6 5.067-10.267 10.4-12.267-3.067-1.867-5.067-5.2-5.067-9.067 0-5.867 4.8-10.667 10.667-10.667s10.667 4.8 10.667 10.667zM16 2.667c-4.4 0-8 3.6-8 8s3.6 8 8 8c4.4 0 8-3.6 8-8s-3.6-8-8-8z"></path>
</symbol>
<symbol id="icon-arrow" viewBox="0 0 55 32">
<path fill="#8dd83d" style="fill: var(--color1, #8dd83d)" d="M54.296 0.578c-0.756-0.771-1.984-0.771-2.741 0l-24.1 24.622-24.147-24.622c-0.756-0.771-1.985-0.771-2.741 0s-0.756 2.024 0 2.795l25.47 25.971c0.378 0.385 0.851 0.578 1.37 0.578 0.473 0 0.992-0.193 1.37-0.578l25.47-25.971c0.803-0.771 0.803-2.024 0.047-2.795z"></path>
</symbol>
<symbol id="icon-next" viewBox="0 0 19 32">
<path fill="#8dd83d" style="fill: var(--color1, #8dd83d)" d="M17.059 14.020c1.093 1.093 1.093 2.866 0 3.96l-11.879 11.879c-1.093 1.094-2.866 1.094-3.96 0s-1.093-2.866 0-3.96l9.899-9.9-9.899-9.899c-1.093-1.093-1.093-2.866 0-3.96s2.866-1.093 3.96 0l11.879 11.879z"></path>
</symbol>
<symbol id="icon-prev" viewBox="0 0 19 32">
<path fill="#8dd83d" style="fill: var(--color1, #8dd83d)" d="M2.141 14.020c-1.093 1.093-1.093 2.866 0 3.96l11.879 11.879c1.093 1.094 2.866 1.094 3.96 0s1.094-2.866 0-3.96l-9.899-9.9 9.899-9.899c1.094-1.093 1.094-2.866 0-3.96s-2.866-1.093-3.96 0l-11.879 11.879z"></path>
</symbol>
<symbol id="icon-carousel-indicators" viewBox="0 0 136 32">
<path fill="#8dd83d" style="fill: var(--color1, #8dd83d)" d="M13.333 29.333c7.364 0 13.333-5.97 13.333-13.333s-5.97-13.333-13.333-13.333c-7.364 0-13.333 5.97-13.333 13.333s5.97 13.333 13.333 13.333z"></path>
<path fill="#fff" style="fill: var(--color2, #fff); stroke: var(--color1, #8dd83d)" opacity="0.01" stroke="#8dd83d" stroke-linejoin="miter" stroke-linecap="butt" stroke-miterlimit="4" stroke-width="2.6667" d="M66.667 29.333c7.364 0 13.333-5.97 13.333-13.333s-5.97-13.333-13.333-13.333c-7.364 0-13.333 5.97-13.333 13.333s5.97 13.333 13.333 13.333z"></path>
<path fill="#fff" style="fill: var(--color2, #fff); stroke: var(--color1, #8dd83d)" opacity="0.01" stroke="#8dd83d" stroke-linejoin="miter" stroke-linecap="butt" stroke-miterlimit="4" stroke-width="2.6667" d="M120 29.333c7.364 0 13.333-5.97 13.333-13.333s-5.97-13.333-13.333-13.333c-7.364 0-13.333 5.97-13.333 13.333s5.97 13.333 13.333 13.333z"></path>
</symbol>
<symbol id="facebook" viewBox="0 0 32 32">
<path fill="" d="M21.328 5.312h2.923v-5.088c-1.232-0.143-2.66-0.224-4.108-0.224-0.052 0-0.104 0-0.156 0l0.008-0c-4.213 0-7.099 2.65-7.099 7.52v4.48h-4.646v5.688h4.646v14.312h5.699v-14.31h4.459l0.707-5.688h-5.168v-3.922c0-1.643 0.443-2.768 2.734-2.768z"></path>
</symbol>
<symbol id="instagram" viewBox="0 0 32 32">
<path fill="" d="M31.968 9.408c-0.074-1.701-0.349-2.869-0.742-3.882-0.424-1.111-1.054-2.059-1.85-2.837l-0.001-0.001c-0.78-0.792-1.724-1.419-2.778-1.827l-0.054-0.018c-1.019-0.394-2.181-0.667-3.882-0.742-1.712-0.082-2.256-0.101-6.602-0.101-4.344 0-4.888 0.019-6.595 0.094-1.699 0.074-2.869 0.349-3.88 0.742-1.112 0.424-2.060 1.054-2.839 1.85l-0.001 0.001c-0.791 0.78-1.418 1.724-1.825 2.778l-0.018 0.054c-0.395 1.019-0.669 2.181-0.744 3.882-0.082 1.712-0.101 2.256-0.101 6.602 0 4.344 0.019 4.888 0.094 6.595 0.075 1.701 0.35 2.869 0.744 3.882 0.426 1.11 1.055 2.057 1.849 2.837l0.001 0.001c0.8 0.813 1.77 1.443 2.832 1.843 1.019 0.395 2.182 0.67 3.882 0.744 1.707 0.075 2.251 0.094 6.595 0.094 4.346 0 4.89-0.019 6.595-0.094 1.701-0.074 2.869-0.349 3.882-0.742 2.157-0.85 3.833-2.526 4.664-4.628l0.019-0.055c0.394-1.019 0.669-2.182 0.744-3.882 0.075-1.707 0.093-2.251 0.093-6.595s-0.006-4.888-0.080-6.595zM29.088 22.474c-0.070 1.563-0.333 2.406-0.55 2.97-0.552 1.399-1.64 2.486-3.004 3.024l-0.036 0.012c-0.56 0.219-1.411 0.482-2.968 0.55-1.688 0.075-2.194 0.094-6.464 0.094-4.269 0-4.782-0.019-6.464-0.094-1.563-0.069-2.406-0.331-2.97-0.55-0.721-0.269-1.334-0.676-1.836-1.192l-0.001-0.001c-0.517-0.503-0.924-1.117-1.184-1.803l-0.011-0.034c-0.218-0.563-0.48-1.413-0.549-2.97-0.075-1.688-0.094-2.195-0.094-6.464 0-4.27 0.019-4.784 0.094-6.464 0.069-1.563 0.331-2.406 0.549-2.97 0.269-0.722 0.678-1.337 1.198-1.837l0.002-0.002c0.504-0.517 1.119-0.923 1.806-1.182l0.034-0.011c0.56-0.219 1.411-0.48 2.968-0.55 1.688-0.074 2.195-0.093 6.464-0.093 4.275 0 4.782 0.019 6.464 0.093 1.563 0.069 2.406 0.331 2.97 0.55 0.693 0.256 1.325 0.662 1.837 1.194 0.531 0.52 0.938 1.144 1.195 1.84 0.218 0.56 0.48 1.411 0.549 2.968 0.075 1.688 0.094 2.194 0.094 6.464 0 4.269-0.019 4.768-0.094 6.458z"></path>
<path fill="" d="M16.059 7.782c-4.539 0.002-8.218 3.682-8.219 8.221v0c0 0 0 0.001 0 0.002 0 4.541 3.681 8.222 8.222 8.222s8.222-3.681 8.222-8.222c0-4.541-3.681-8.222-8.222-8.222-0.001 0-0.001 0-0.002 0h0zM16.059 21.334c-2.945-0-5.332-2.388-5.332-5.333s2.388-5.333 5.333-5.333c0 0 0.001 0 0.001 0h-0c2.946 0 5.334 2.388 5.334 5.334s-2.388 5.334-5.334 5.334v0zM26.525 7.458c0 1.060-0.86 1.92-1.92 1.92s-1.92-0.86-1.92-1.92v0c0-1.060 0.86-1.92 1.92-1.92s1.92 0.86 1.92 1.92v0z"></path>
</symbol>
<symbol id="twitter" viewBox="0 0 32 32">
<path fill="" d="M32 6.078c-1.1 0.493-2.376 0.857-3.713 1.028l-0.068 0.007c1.36-0.817 2.382-2.078 2.873-3.579l0.013-0.046c-1.197 0.722-2.591 1.273-4.076 1.573l-0.084 0.014c-1.2-1.279-2.9-2.076-4.787-2.076-3.622 0-6.558 2.936-6.558 6.558 0 0.001 0 0.003 0 0.004v-0c0 0.52 0.043 1.021 0.152 1.496-5.454-0.266-10.28-2.88-13.522-6.861-0.564 0.949-0.899 2.092-0.902 3.313v0.001c0 2.272 1.171 4.286 2.914 5.451-1.091-0.030-2.107-0.325-2.994-0.823l0.033 0.017v0.072c0.003 3.165 2.236 5.807 5.213 6.44l0.043 0.008c-0.499 0.136-1.071 0.215-1.662 0.215-0.020 0-0.041-0-0.061-0l0.003 0c-0.419 0-0.843-0.024-1.242-0.112 0.85 2.598 3.261 4.509 6.13 4.57-2.215 1.746-5.045 2.8-8.122 2.8-0.004 0-0.008 0-0.013 0h0.001c-0.018 0-0.040 0-0.062 0-0.531 0-1.055-0.034-1.569-0.099l0.061 0.006c2.826 1.846 6.287 2.944 10.004 2.944 0.021 0 0.042-0 0.063-0h-0.003c12.072 0 18.672-10 18.672-18.669 0-0.288-0.010-0.57-0.024-0.848 1.299-0.936 2.39-2.064 3.258-3.355l0.030-0.047z"></path>
</symbol>
</defs>
</svg>
